Coordinates
version=1
nRows=29
nColumns=22
inDegrees=yes

Units are S.I. units (second, meters, Newtons, ...)
If the header above contains a line with 'inDegrees', this indicates whether rotational values are in degrees (yes) or radians (no).

endheader
time	pelvis_tilt	pelvis_list	pelvis_rotation	pelvis_tx	pelvis_ty	pelvis_tz	hip_flexion_r	hip_adduction_r	hip_rotation_r	knee_angle_r	ankle_angle_r	subtalar_angle_r	hip_flexion_l	hip_adduction_l	hip_rotation_l	knee_angle_l	ankle_angle_l	subtalar_angle_l	lumbar_extension	lumbar_bending	lumbar_rotation
      1.44000000	    -11.47044251	      1.42701312	    -11.29127051	     -1.05730338	      0.96742229	     -0.32679616	     26.50500437	      0.66956561	      0.40207245	    -35.24736387	     21.24205460	     -7.51968978	     20.53102470	      2.17907140	     -5.60079761	    -24.85685199	     22.74125267	     -3.66459868	     -1.24242626	      0.05195903	      4.71546782
      1.45000000	    -11.38910401	      1.65735110	    -11.34310173	     -1.05508016	      0.96720483	     -0.32709649	     27.13204165	      0.42576300	      0.49190215	    -36.58799599	     21.36183928	     -7.47370025	     20.23176494	      2.46891834	     -5.73057655	    -24.63310494	     22.81681739	     -3.66616428	     -1.31790513	     -0.17197488	      4.66028613
      1.46000000	    -11.34825054	      1.85423845	    -11.40721550	     -1.05280512	      0.96699510	     -0.32731329	     27.81812258	      0.23265335	      0.54795939	    -37.91690846	     21.43418146	     -7.40154008	     19.96981434	      2.70206959	     -5.90729284	    -24.41882269	     22.86359419	     -3.69150511	     -1.35197170	     -0.34359758	      4.61283264
      1.47000000	    -11.28923709	      2.01157173	    -11.46713153	     -1.05044915	      0.96690144	     -0.32746754	     28.48111111	      0.08471499	      0.58479573	    -39.19467852	     21.47805619	     -7.40306579	     19.66164633	      2.90791254	     -6.01986456	    -24.17870090	     22.93128800	     -3.70307830	     -1.41939159	     -0.47306801	      4.55349638
      1.48000000	    -11.24876060	      2.13208839	    -11.52679528	     -1.04801772	      0.96684885	     -0.32753866	     29.16207515	     -0.01891988	      0.57693535	    -40.40903983	     21.48355386	     -7.42207138	     19.35690418	      3.06707845	     -6.13452185	    -23.93328888	     22.99533203	     -3.72057952	     -1.47315197	     -0.55847176	      4.48699723
      1.49000000	    -11.22776343	      2.21391036	    -11.57498182	     -1.04551708	      0.96683821	     -0.32755563	     29.85255118	     -0.08235234	      0.52028444	    -41.53274469	     21.45851084	     -7.45386246	     19.05557304	      3.18294886	     -6.23366828	    -23.67859436	     23.05644100	     -3.74193742	     -1.51599626	     -0.59483085	      4.40516571
      1.50000000	    -11.22369186	      2.26253242	    -11.60566577	     -1.04294534	      0.96685791	     -0.32752956	     30.54619579	     -0.11454595	      0.41790569	    -42.54718272	     21.40228918	     -7.49083874	     18.75397435	      3.26464566	     -6.30973999	    -23.41032852	     23.12158247	     -3.76457977	     -1.55070057	     -0.59035737	      4.29822524
      1.51000000	    -11.23807565	      2.28083533	    -11.61400954	     -1.04031031	      0.96689476	     -0.32746667	     31.24182228	     -0.12242797	      0.26711054	    -43.43778967	     21.32012016	     -7.52105643	     18.45914743	      3.31480875	     -6.35972254	    -23.13725867	     23.18642614	     -3.79007028	     -1.57587025	     -0.55064481	      4.16498956
      1.52000000	    -11.26560059	      2.27113883	    -11.59446718	     -1.03759089	      0.96694840	     -0.32738908	     31.92745830	     -0.11464837	      0.06971619	    -44.18692500	     21.21703370	     -7.53112014	     18.15922585	      3.34003434	     -6.38023901	    -22.84811651	     23.25014306	     -3.81333368	     -1.59786839	     -0.47691635	      4.00379089
      1.53000000	    -11.26649339	      2.22132480	    -11.56344596	     -1.03477986	      0.96707389	     -0.32727277	     32.55431379	     -0.07969710	     -0.15601903	    -44.78132322	     21.07373040	     -7.52023948	     17.81219446	      3.32688036	     -6.40779216	    -22.54895467	     23.35807382	     -3.81861645	     -1.66924060	     -0.36438927	      3.83084663
      1.54000000	    -11.33386464	      2.19065668	    -11.47194752	     -1.03187976	      0.96709787	     -0.32721316	     33.23735341	     -0.08604299	     -0.43322161	    -45.23514988	     20.97128335	     -7.45645201	     17.52145031	      3.34182167	     -6.35610674	    -22.21947077	     23.38251042	     -3.84323714	     -1.65701929	     -0.26086575	      3.59356186
      1.55000000	    -11.35592496	      2.13184513	    -11.39838093	     -1.02887475	      0.96719451	     -0.32706941	     33.84581339	     -0.05847329	     -0.67963193	    -45.53226111	     20.81453589	     -7.39132244	     17.15964640	      3.32461418	     -6.34826269	    -21.87242147	     23.48244018	     -3.84618410	     -1.71264404	     -0.13680869	      3.38123946
      1.56000000	    -11.38792497	      2.07578018	    -11.28791664	     -1.02576776	      0.96726786	     -0.32692461	     34.44077842	     -0.05250527	     -0.94933227	    -45.67836700	     20.67376710	     -7.28810676	     16.79055302	      3.31879043	     -6.29539043	    -21.49762278	     23.55241142	     -3.84533849	     -1.75806063	     -0.02034793	      3.12718157
      1.57000000	    -11.42638187	      2.01362735	    -11.12931346	     -1.02256413	      0.96730267	     -0.32682918	     35.01804820	     -0.07316254	     -1.25341316	    -45.68378629	     20.59805634	     -7.07294509	     16.42699777	      3.31582522	     -6.21068555	    -21.12894789	     23.58872493	     -3.86124176	     -1.80448025	      0.10883773	      2.81997739
      1.58000000	    -11.45243683	      1.97070549	    -11.02856296	     -1.01928579	      0.96731104	     -0.32655760	     35.57847835	     -0.06696466	     -1.45778486	    -45.56187014	     20.45717011	     -6.94097130	     16.02347022	      3.31663533	     -6.16763149	    -20.71961737	     23.68668471	     -3.85579027	     -1.86576828	      0.20297775	      2.58660427
      1.59000000	    -11.46354879	      1.92214064	    -10.87574574	     -1.01592217	      0.96729503	     -0.32630844	     36.10034896	     -0.09992109	     -1.71798552	    -45.31847602	     20.41136903	     -6.64707505	     15.61200648	      3.32158707	     -6.09899438	    -20.33205134	     23.73649453	     -3.87610187	     -1.95456277	      0.29818709	      2.28246128
      1.60000000	    -11.48712738	      1.90397974	    -10.77159015	     -1.01251205	      0.96718629	     -0.32591702	     36.64051536	     -0.12807153	     -1.91343795	    -44.97418875	     20.30886814	     -6.44911578	     15.20694428	      3.34092470	     -6.06550145	    -19.93500808	     23.81910388	     -3.88586819	     -2.03035101	      0.35793376	      2.04537146
      1.61000000	    -11.52061130	      1.89598390	    -10.68373077	     -1.00906481	      0.96698447	     -0.32539627	     37.18681757	     -0.15195543	     -2.08435029	    -44.53770183	     20.23849795	     -6.22024187	     14.81596102	      3.35818218	     -6.03769541	    -19.55252881	     23.91520233	     -3.91480891	     -2.10105714	      0.39856300	      1.82129414
      1.62000000	    -11.57118039	      1.90857631	    -10.62269553	     -1.00559627	      0.96666989	     -0.32474362	     37.75624541	     -0.17889705	     -2.23467093	    -44.02608069	     20.14529660	     -6.03275556	     14.45755897	      3.37958476	     -6.03638272	    -19.20020876	     24.02522577	     -3.94982992	     -2.15895350	      0.41111653	      1.63376615
      1.63000000	    -11.63527177	      1.93319499	    -10.60293297	     -1.00208237	      0.96625226	     -0.32391736	     38.33652009	     -0.18519739	     -2.34813390	    -43.43753719	     20.04899016	     -5.93432166	     14.11916283	      3.39527474	     -6.05872957	    -18.87083118	     24.17142086	     -3.96819363	     -2.20474790	      0.40475386	      1.49892410
      1.64000000	    -11.70960211	      1.96924474	    -10.59226762	     -0.99852019	      0.96573972	     -0.32298987	     38.92854966	     -0.19966410	     -2.47035336	    -42.79478259	     19.93099609	     -5.80239099	     13.80966666	      3.41375213	     -6.08398620	    -18.58338692	     24.32753663	     -4.00686472	     -2.24586182	      0.38322852	      1.36904677
      1.65000000	    -11.79672004	      2.01127964	    -10.60298491	     -0.99489827	      0.96512940	     -0.32193897	     39.53285397	     -0.20494390	     -2.58418528	    -42.10455058	     19.79984251	     -5.65430272	     13.53032281	      3.42448476	     -6.12103210	    -18.33967096	     24.50995825	     -4.06139133	     -2.27694489	      0.35380976	      1.26211733
      1.66000000	    -11.92448658	      2.05320946	    -10.62236381	     -0.99121260	      0.96437764	     -0.32078751	     40.17614453	     -0.19642387	     -2.70271770	    -41.37566187	     19.66272159	     -5.39548293	     13.32827898	      3.41354518	     -6.19875725	    -18.17573521	     24.70895925	     -4.17909317	     -2.26361459	      0.33258599	      1.15080102
      1.67000000	    -11.99128667	      2.10670209	    -10.66560581	     -0.98736458	      0.96366561	     -0.31953842	     40.74587601	     -0.19325174	     -2.80070689	    -40.60919560	     19.51608283	     -5.30526971	     13.04394157	      3.42872777	     -6.23255717	    -17.99574119	     24.94183546	     -4.20552424	     -2.31913871	      0.28512168	      1.08630240
      1.68000000	    -12.07973661	      2.13148562	    -10.71358068	     -0.98339857	      0.96286571	     -0.31819453	     41.31869837	     -0.15402520	     -2.91353407	    -39.80993481	     19.34102410	     -5.14277594	     12.81235994	      3.39417380	     -6.31561905	    -17.90176742	     25.20244119	     -4.26055960	     -2.35444928	      0.27735301	      1.01124174
      1.69000000	    -12.12849041	      2.17347682	    -10.76657237	     -0.97925276	      0.96206448	     -0.31679786	     41.84672609	     -0.13338812	     -3.01619971	    -39.00335109	     19.17548413	     -5.04094316	     12.53102337	      3.39183041	     -6.34498868	    -17.80807849	     25.48666449	     -4.27959088	     -2.42868651	      0.24250463	      0.95641240
      1.70000000	    -12.16480092	      2.17439852	    -10.81797242	     -0.97491750	      0.96124401	     -0.31534774	     42.33040946	     -0.07928543	     -3.14608045	    -38.17170446	     19.01137541	     -4.89278456	     12.25255033	      3.33987453	     -6.41525541	    -17.78288892	     25.79133365	     -4.29470079	     -2.51992113	      0.26328338	      0.87998178
      1.71000000	    -12.16375448	      2.17292516	    -10.87021971	     -0.97037893	      0.96042068	     -0.31385844	     42.76526436	     -0.03167625	     -3.28244882	    -37.34608071	     18.86132254	     -4.76078378	     11.93292347	      3.29613903	     -6.45259786	    -17.77945247	     26.11655807	     -4.28316484	     -2.64892538	      0.28385255	      0.80942330
      1.72000000	    -12.13010721	      2.15376893	    -10.92001423	     -0.96562913	      0.95959334	     -0.31231644	     43.14802802	      0.02293817	     -3.44061329	    -36.52678375	     18.72233744	     -4.64483709	     11.58094662	      3.23997422	     -6.47986907	    -17.81055449	     26.46143338	     -4.25025907	     -2.81208698	      0.32185789	      0.73304497
